<?xml version="1.0" standalone="no"?>
<!DOCTYPE svg PUBLIC "-//W3C//DTD SVG 20010904//EN"
 "http://www.w3.org/TR/2001/REC-SVG-20010904/DTD/svg10.dtd">
<svg version="1.0" xmlns="http://www.w3.org/2000/svg"
 width="512.000000pt" height="512.000000pt" viewBox="0 0 512.000000 512.000000"
 preserveAspectRatio="xMidYMid meet">
<metadata>
Created by potrace 1.11, written by Peter Selinger 2001-2013
</metadata>
<g transform="translate(0.000000,512.000000) scale(0.100000,-0.100000)"
fill="#000000" stroke="none">
<path d="M513 4390 c-69 -42 -123 -152 -123 -250 0 -58 21 -87 68 -96 63 -11
111 -42 142 -91 40 -62 52 -128 48 -261 l-3 -114 -65 -22 c-198 -70 -408 -227
-511 -384 -59 -90 -74 -152 -60 -251 19 -140 71 -191 291 -291 177 -79 197
-101 221 -235 18 -105 5 -236 -70 -725 -80 -520 -65 -777 64 -1045 97 -201
278 -391 463 -484 90 -45 252 -97 352 -113 68 -10 444 -13 1880 -13 l1795 0
43 23 c49 26 78 78 67 121 -19 75 -222 199 -550 335 -88 37 -170 71 -183 77
-30 12 -27 19 28 64 114 94 273 302 335 440 116 253 162 508 145 797 -13 214
-41 344 -118 543 -65 169 -124 269 -258 438 -164 206 -309 320 -559 442 -253
123 -450 167 -745 169 -282 1 -469 -34 -716 -137 -285 -118 -479 -250 -689
-469 -218 -227 -352 -453 -465 -787 -51 -150 -63 -225 -46 -294 3 -12 -4 -2
-17 23 -36 73 -30 214 16 405 114 474 125 744 41 986 l-28 79 37 213 c52 293
57 335 57 472 0 181 -29 272 -118 368 -51 54 -109 86 -157 87 -91 0 -185 -137
-185 -270 0 -58 20 -86 67 -95 45 -8 102 -36 124 -61 55 -62 86 -197 75 -324
-8 -91 -26 -192 -36 -203 -4 -5 -30 8 -56 29 -69 52 -177 102 -240 110 -63 7
-60 -1 -39 140 8 54 15 152 15 218 0 181 -30 274 -118 369 -77 82 -155 106
-219 67z m2957 -1509 c228 -49 358 -115 526 -266 224 -201 364 -523 364 -835
0 -455 -234 -791 -625 -896 -95 -26 -293 -26 -385 -1 -114 31 -188 74 -270
156 -160 161 -225 389 -169 591 41 149 112 239 240 304 136 68 252 60 331 -22
58 -59 81 -114 86 -202 6 -98 -14 -169 -71 -252 -24 -35 -42 -69 -39 -76 12
-38 139 -55 241 -31 218 50 376 276 357 509 -24 290 -221 551 -475 630 -221
69 -459 46 -680 -64 -345 -174 -544 -518 -544 -941 0 -536 352 -1011 844
-1139 52 -14 105 -27 119 -29 14 -2 -9 -5 -50 -6 -92 -1 -284 36 -430 85 -319
106 -582 323 -849 700 -229 323 -309 417 -385 457 l-41 20 63 19 c107 32 158
97 206 264 150 525 593 937 1106 1028 131 23 145 24 295 21 92 -2 173 -11 235
-24z"/>
</g>
</svg>
